Coordinates
nRows=247
nColumns=2
inDegrees=yes
endheader
time	ankle_angle_r	
3.29335	 -5.035400	
3.32661	 -5.020142	
3.35988	 -5.050659	
3.39315	 -4.983917	
3.42641	 -4.990266	
3.45968	 -5.050659	
3.49294	 -4.984558	
3.52621	 -4.979527	
3.55948	 -5.010142	
3.59274	 -5.004883	
3.62601	 -4.989624	
3.65927	 -5.045110	
3.69254	 -5.085144	
3.72581	 -5.096436	
3.75907	 -5.060079	
3.79234	 -5.121017	
3.8256	 -5.093242	
3.85887	 -5.166600	
3.89214	 -5.081177	
3.9254	 -5.109081	
3.95867	 -5.105275	
3.99194	 -5.048432	
4.0252	 -5.172729	
4.05847	 -5.172729	
4.09173	 -5.203247	
4.125	 -5.126953	
4.15827	 -5.157471	
4.19153	 -5.195085	
4.2248	 -5.126953	
4.25806	 -5.187988	
4.29133	 -5.142212	
4.3246	 -5.157763	
4.35786	 -5.119373	
4.39113	 -5.149701	
4.4244	 -5.157184	
4.45766	 -5.157471	
4.49093	 -5.012175	
4.52419	 -5.095568	
4.55746	 -5.081177	
4.59073	 -5.081177	
4.62399	 -5.079730	
4.65726	 -5.065918	
4.69052	 -5.064084	
4.72379	 -5.039989	
4.75706	 -5.065918	
4.79032	 -5.044237	
4.82359	 -5.081177	
4.85685	 -5.117923	
4.89012	 -5.087309	
4.92339	 -5.050659	
4.95665	 -5.056598	
4.98992	 -5.071760	
5.02319	 -5.081177	
5.05645	 -5.041049	
5.08972	 -5.086729	
5.12298	 -5.117150	
5.15625	 -5.075818	
5.18952	 -5.096436	
5.22278	 -5.152543	
5.25605	 -5.152349	
5.28931	 -5.187988	
5.32258	 -5.177605	
5.35585	 -5.177508	
5.38911	 -5.137530	
5.42238	 -5.137627	
5.45565	 -5.207736	
5.48891	 -5.168338	
5.52218	 -5.164139	
5.55544	 -5.244825	
5.58871	 -5.183887	
5.62198	 -5.237770	
5.65524	 -5.317501	
5.68851	 -5.252835	
5.72177	 -5.302230	
5.75504	 -5.336958	
5.78831	 -5.272498	
5.82157	 -5.313484	
5.85484	 -5.337248	
5.8881	 -5.279541	
5.92137	 -5.337441	
5.95464	 -5.227688	
5.9879	 -5.124012	
6.02117	 -5.160316	
6.05444	 -5.200499	
6.0877	 -5.152168	
6.12097	 -5.096436	
6.15423	 -5.096436	
6.1875	 -5.155109	
6.22077	 -5.070447	
6.25403	 -5.052827	
6.2873	 -5.079105	
6.32056	 -5.081177	
6.35383	 -5.121319	
6.3871	 -5.081177	
6.42036	 -5.062549	
6.45363	 -5.096436	
6.4869	 -5.020142	
6.52016	 -5.110300	
6.55343	 -5.079879	
6.58669	 -5.049458	
6.61996	 -5.067022	
6.65323	 -5.050659	
6.68649	 -5.036312	
6.71976	 -5.126953	
6.75302	 -5.095718	
6.78629	 -5.096436	
6.81956	 -5.142212	
6.85282	 -5.096436	
6.88609	 -5.065918	
6.91935	 -5.202778	
6.95262	 -5.142350	
6.98589	 -5.096436	
7.01915	 -5.172674	
7.05242	 -5.172882	
7.08569	 -5.126704	
7.11895	 -5.142558	
7.15222	 -5.141769	
7.18548	 -5.157471	
7.21875	 -5.142848	
7.25202	 -5.142212	
7.28528	 -5.171071	
7.31855	 -5.126953	
7.35181	 -5.142212	
7.38508	 -5.138855	
7.41835	 -5.067134	
7.45161	 -5.067231	
7.48488	 -5.018733	
7.51815	 -5.067424	
7.55141	 -5.065918	
7.58468	 -5.018442	
7.61794	 -5.113491	
7.65121	 -5.062132	
7.68448	 -4.991613	
7.71774	 -5.037487	
7.75101	 -5.092070	
7.78427	 -5.020142	
7.81754	 -5.078801	
7.85081	 -5.030455	
7.88407	 -5.048090	
7.91734	 -5.053325	
7.9506	 -5.096436	
7.98387	 -5.010602	
8.01714	 -5.023098	
8.0504	 -5.062865	
8.08367	 -4.989624	
8.11694	 -5.038647	
8.1502	 -5.020142	
8.18347	 -4.989624	
8.21673	 -5.169193	
8.25	 -5.108061	
8.28327	 -5.169000	
8.31653	 -5.130780	
8.3498	 -5.195401	
8.38306	 -5.126953	
8.41633	 -5.187988	
8.4496	 -5.074344	
8.48286	 -5.111694	
8.51613	 -5.249023	
8.5494	 -5.177233	
8.58266	 -5.183388	
8.61593	 -5.166864	
8.64919	 -5.152678	
8.68246	 -5.208137	
8.71573	 -5.233765	
8.74899	 -5.198164	
8.78226	 -5.182808	
8.81552	 -5.172729	
8.84879	 -5.147585	
8.88206	 -5.106224	
8.91532	 -5.115819	
8.94859	 -5.069850	
8.98185	 -5.050659	
9.01512	 -5.075320	
9.04839	 -5.115046	
9.08165	 -5.056709	
9.11492	 -5.053624	
9.14819	 -5.081177	
9.18145	 -5.096436	
9.21472	 -5.087614	
9.24798	 -5.028867	
9.28125	 -5.035400	
9.31452	 -5.081177	
9.34778	 -5.067529	
9.38105	 -5.089515	
9.41431	 -5.058901	
9.44758	 -5.095404	
9.48085	 -5.073967	
9.51411	 -5.081177	
9.54738	 -5.050659	
9.58065	 -5.103936	
9.61391	 -5.119356	
9.64718	 -5.088871	
9.68044	 -5.180198	
9.71371	 -5.233249	
9.74698	 -5.119678	
9.78024	 -5.119775	
9.81351	 -5.217410	
9.84677	 -5.164455	
9.88004	 -5.203247	
9.91331	 -5.164262	
9.94657	 -5.181293	
9.97984	 -5.207783	
10.0131	 -5.212005	
10.0464	 -5.163876	
10.0796	 -5.224814	
10.1129	 -5.172729	
10.1462	 -5.215421	
10.1794	 -5.184765	
10.2127	 -5.218506	
10.246	 -5.145822	
10.2792	 -5.178457	
10.3125	 -5.258651	
10.3458	 -5.187988	
10.379	 -5.117132	
10.4123	 -5.131530	
10.4456	 -5.065918	
10.4788	 -5.081177	
10.5121	 -5.045608	
10.5454	 -5.020142	
10.5786	 -5.056202	
10.6119	 -5.036376	
10.6452	 -5.009547	
10.6784	 -5.056783	
10.7117	 -5.024612	
10.745	 -5.009257	
10.7782	 -5.053085	
10.8115	 -5.004883	
10.8448	 -5.016057	
10.878	 -5.020142	
10.9113	 -5.004883	
10.9446	 -5.001089	
10.9778	 -5.035400	
11.0111	 -4.981567	
11.0444	 -5.004883	
11.0776	 -5.031993	
11.1109	 -4.992935	
11.1442	 -4.998455	
11.1774	 -5.047542	
11.2107	 -5.053680	
11.244	 -5.017218	
11.2772	 -5.136557	
11.3105	 -5.063187	
11.3437	 -5.063284	
11.377	 -5.132028	
11.4103	 -5.129394	
11.4435	 -5.124609	
11.4768	 -5.157471	
